Coordinates
version=1
nRows=38
nColumns=12
inDegrees=yes

Units are S.I. units (second, meters, Newtons, ...)
Angles are in degrees

endheader
time	SC_y	SC_z	SC_x	AC_y	AC_z	AC_x	GH_y	GH_z	GH_yy	EL_x	PS_y
       0.0               -35.7          32.35          1.327          65.33          3.555          3.531           51.8          58.77         -34.28          75.23          104.1
   0.03528               -35.7          32.34          1.334          65.33          3.555          3.529          51.77          58.77         -34.27          75.23          104.1
   0.07056               -35.7          32.33          1.343          65.32          3.554          3.527          51.75          58.77         -34.26          75.23          104.1
    0.1058              -35.69          32.33          1.351          65.32          3.554          3.525          51.72          58.76         -34.24          75.23          104.1
    0.1411              -35.69          32.32          1.361          65.32          3.554          3.523          51.69          58.76         -34.23          75.22          104.1
    0.1764              -35.69          32.32          1.371          65.31          3.553           3.52          51.66          58.76         -34.22          75.22          104.1
    0.2117              -35.69          32.31          1.381          65.31          3.553          3.517          51.62          58.76         -34.21          75.22          104.1
     0.247              -35.68           32.3          1.393           65.3          3.553          3.515          51.58          58.75         -34.19          75.22          104.1
    0.2823              -35.68          32.29          1.405          65.29          3.552          3.512          51.54          58.75         -34.17          75.22          104.1
    0.3175              -35.68          32.28          1.418          65.29          3.552          3.508           51.5          58.75         -34.16          75.22          104.1
    0.3528              -35.67          32.27          1.432          65.28          3.551          3.505          51.46          58.74         -34.14          75.22          104.1
    0.3881              -35.67          32.26          1.448          65.28          3.551          3.501          51.41          58.74         -34.12          75.21          104.1
    0.4234              -35.67          32.25          1.464          65.27           3.55          3.497          51.36          58.73          -34.1          75.21          104.1
    0.4587              -35.66          32.24          1.482          65.26          3.549          3.492           51.3          58.73         -34.08          75.21          104.1
    0.4939              -35.66          32.23          1.501          65.25          3.549          3.488          51.24          58.73         -34.05          75.21          104.1
    0.5292              -35.65          32.21          1.521          65.24          3.548          3.483          51.17          58.72         -34.03          75.21          104.2
    0.5645              -35.65           32.2          1.544          65.23          3.547          3.477           51.1          58.71          -34.0           75.2          104.2
    0.5998              -35.64          32.18          1.568          65.22          3.546          3.471          51.02          58.71         -33.96           75.2          104.2
    0.6351              -35.63          32.16          1.595          65.21          3.546          3.464          50.93           58.7         -33.93           75.2          104.2
    0.6704              -35.63          32.15          1.625           65.2          3.545          3.457          50.84          58.69         -33.89          75.19          104.2
    0.7056              -35.62          32.12          1.657          65.18          3.543          3.449          50.74          58.68         -33.85          75.19          104.2
    0.7409              -35.61           32.1          1.692          65.16          3.542           3.44          50.62          58.68         -33.81          75.19          104.2
    0.7762               -35.6          32.07          1.731          65.15          3.541           3.43           50.5          58.67         -33.75          75.18          104.2
    0.8115              -35.59          32.04          1.775          65.13          3.539          3.419          50.36          58.65          -33.7          75.18          104.2
    0.8468              -35.58          32.01          1.823           65.1          3.538          3.407           50.2          58.64         -33.64          75.17          104.3
     0.882              -35.57          31.98          1.877          65.08          3.536          3.394          50.03          58.63         -33.57          75.17          104.3
    0.9173              -35.55          31.93          1.937          65.05          3.534          3.379          49.84          58.61         -33.49          75.16          104.3
    0.9526              -35.54          31.89          2.005          65.02          3.531          3.362          49.62          58.59          -33.4          75.15          104.3
    0.9879              -35.52          31.84          2.082          64.99          3.529          3.343          49.37          58.57          -33.3          75.14          104.4
     1.023               -35.5          31.78          2.169          64.95          3.526          3.321          49.09          58.55         -33.19          75.13          104.4
     1.058              -35.47          31.71          2.268           64.9          3.522          3.296          48.77          58.53         -33.06          75.12          104.4
     1.094              -35.44          31.64          2.382          64.85          3.518          3.268          48.41           58.5         -32.92          75.11          104.5
     1.129              -35.41          31.55          2.513          64.79          3.514          3.235          47.98          58.46         -32.75          75.09          104.5
     1.164              -35.38          31.44          2.666          64.72          3.509          3.197          47.49          58.42         -32.55          75.07          104.6
       1.2              -35.33          31.32          2.845          64.64          3.502          3.152          46.92          58.38         -32.32          75.05          104.6
     1.235              -35.28          31.18          3.056          64.54          3.495            3.1          46.24          58.32         -32.05          75.03          104.7
      1.27              -35.22          31.01          3.307          64.43          3.487          3.037          45.44          58.26         -31.73           75.0          104.8
     1.305              -35.15          30.81          3.607          64.29          3.476          2.962          44.47          58.18         -31.34          74.97          104.9
